<svg xmlns="http://www.w3.org/2000/svg" width="1200" height="630" viewBox="0 0 1200 630">
  <rect width="1200" height="630" fill="#eef1ee"/>
  <rect x="48" y="48" width="1104" height="534" fill="none" stroke="#1a211c" stroke-width="2" opacity="0.18"/>
  <g transform="translate(96 140)">
    <rect x="1" y="1" width="46" height="46" fill="none" stroke="#1a211c" stroke-width="1.5"/>
    <path d="M16 42V10h20.5c8.25 0 13.75 4.75 13.75 12 0 5.75-3.5 10-9 11.5L44 42h-8.5L22 26.5H23.5V42H16zm7.5-22.75h12.5c4.5 0 7.25-2.5 7.25-6s-2.75-5.75-7.25-5.75H23.5v11.75z" fill="#1a211c"/>
  </g>
  <text x="168" y="178" font-family="ui-monospace, monospace" font-size="36" font-weight="500" fill="#1a211c">Robmcd.name</text>
  <rect x="96" y="208" width="40" height="2" fill="#1f6a4a"/>
  <text x="96" y="280" font-family="ui-sans-serif, system-ui, sans-serif" font-size="44" font-weight="600" fill="#1a211c">Cross-Platform Engineering</text>
  <text x="96" y="340" font-family="ui-sans-serif, system-ui, sans-serif" font-size="44" font-weight="600" fill="#1a211c">Legacy Modernization / Infrastructure</text>
  <text x="96" y="420" font-family="ui-sans-serif, system-ui, sans-serif" font-size="24" fill="#5c665f">Robert McDowell - servers, stacks, and open tools you can open today.</text>
  <text x="96" y="520" font-family="ui-monospace, monospace" font-size="18" fill="#1f6a4a">robmcd.name</text>
</svg>
